<?xml version="1.0" encoding="utf-8"?>
<!-- Generator: Adobe Illustrator 23.0.0, SVG Export Plug-In . SVG Version: 6.00 Build 0)  -->
<svg version="1.1" id="레이어_1" xmlns="http://www.w3.org/2000/svg" xmlns:xlink="http://www.w3.org/1999/xlink" x="0px"
	 y="0px" viewBox="0 0 770.12 253.17" style="enable-background:new 0 0 770.12 253.17;" xml:space="preserve">
<style type="text/css">
	.st0{fill:#F2F2F2;}
	.st1{fill:#28B7EB;}
	.st2{fill:#040000;}
	.st3{fill:#2B2D2F;}
	.st4{fill:#757575;}
	.st5{fill:#FFFFFF;}
	.st6{fill:#989898;}
</style>
<path class="st1" d="M354.36,73.44c-0.22-1.33-1.22-2.56-2.99-3.69c-1.77-1.12-4.58-2.04-8.43-2.75c-3.85-0.71-8.95-0.54-15.3,0.51
	c-6.72,1.11-12.89,3.22-18.52,6.32c-2.82,1.55-5.37,3.32-7.66,5.31c-2.29,1.99-4.21,4.16-5.76,6.52c-1.55,2.36-2.65,4.9-3.31,7.64
	c-0.66,2.73-0.67,6.02-0.03,9.86c0.64,3.84,3.08,8.17,7.33,13c1.81,2.11,3.74,4.17,5.77,6.17c2.03,2,3.95,4.04,5.76,6.1
	c4.22,4.64,6.68,9.08,7.38,13.31c0.92,5.57-0.48,10.08-4.21,13.53c-1.73,1.56-3.84,2.85-6.35,3.85c-2.5,1.01-5.42,1.78-8.76,2.34
	c-3.34,0.55-6.71,0.64-10.13,0.26c-9.55-0.97-16.97-5.15-22.28-12.55c-1.16-1.62-3.49-1.91-4.95-0.55
	c-0.01,0.01-0.02,0.02-0.03,0.02c-0.49,0.46-0.91,0.98-1.27,1.56c-0.35,0.58-0.19,2.89,0.47,6.94c0.67,4.05,2.23,8.32,4.67,12.8
	c2.44,4.49,5.72,8.3,9.83,11.45c8.4,6.5,18.21,8.82,29.44,6.97c13.29-2.2,23.74-7.45,31.35-15.75c3.81-4.08,6.59-8.85,8.34-14.32
	c1.74-5.46,2.04-11.63,0.91-18.51c-1.14-6.88-5.08-13.4-11.81-19.56c-2.85-2.65-5.87-5.08-9.07-7.29c-3.2-2.21-6.19-4.34-8.96-6.39
	c-2.77-2.05-5.14-4.06-7.1-6.06c-1.96-1.99-3.13-4.11-3.5-6.37c-0.69-4.14,0.99-7.87,5.03-11.18c1.78-1.52,3.93-2.82,6.44-3.9
	c2.52-1.08,5.09-1.84,7.74-2.27c2.64-0.44,5.22-0.53,7.72-0.28c5.77,0.63,10.5,2.28,14.19,4.95c2.27,1.64,5.48,0.9,6.81-1.57
	c0.01-0.02,0.02-0.04,0.03-0.06c0.5-0.98,0.88-1.95,1.15-2.92C354.56,75.93,354.58,74.78,354.36,73.44z"/>
<g>
	<g>
		<path class="st2" d="M98.64,150.33c0.18-0.88,0.26-1.84,0.26-2.87V98.72h8.79l23.28,32.36v-29.73c0-1.42-0.15-2.3-0.44-2.64h11.86
			c-0.15,1.04-0.22,2.17-0.22,3.42v48.2h-9.14l-22.93-31.08v31.08H98.64z"/>
		<path class="st2" d="M198.14,141.02c1.82,0,3.08-0.16,3.78-0.47l0.18,0.04l-0.44,9.74h-32.91V98.45c0.79,0.05,1.67,0.09,2.64,0.12
			l3.08,0.08c2.05,0.05,4.28,0.08,6.68,0.08c6.71,0,13.34-0.1,19.9-0.31c-0.32,2.28-0.48,5.32-0.48,9.12c0,0.41,0.03,0.72,0.09,0.93
			l-0.09,0.12c-1.52-0.39-3.69-0.58-6.5-0.58h-13.84v9.9h10.41c3.22,0,5.15-0.08,5.8-0.23l0.13,9.58c-1.41-0.13-3.22-0.19-5.45-0.19
			h-10.9v13.97H198.14z"/>
		<path class="st2" d="M245.71,150.57c-1.41-0.16-5.02-0.23-10.85-0.23h-1.41v-42.92h-8.7c-2.58,0-4.1,0.12-4.57,0.35
			c-0.47,0.23-0.83,0.44-1.1,0.62l-0.13-0.04v-9.93l0.13-0.12c0.97,0.28,3.57,0.43,7.82,0.43h27.55c2.58,0,4.1-0.12,4.57-0.35
			c0.47-0.23,0.83-0.44,1.1-0.62l0.13,0.04v9.93l-0.13,0.12c-0.97-0.28-3.57-0.43-7.82-0.43h-6.59V150.57z"/>
	</g>
</g>
<g>
	<g>
		<path class="st2" d="M391.58,150.57c-1.41-0.16-5.02-0.23-10.85-0.23h-1.41v-42.92h-8.7c-2.58,0-4.1,0.12-4.57,0.35
			c-0.47,0.23-0.83,0.44-1.1,0.62l-0.13-0.04v-9.93l0.13-0.12c0.97,0.28,3.57,0.43,7.82,0.43h27.55c2.58,0,4.1-0.12,4.57-0.35
			c0.47-0.23,0.83-0.44,1.1-0.62l0.13,0.04v9.93l-0.13,0.12c-0.97-0.28-3.57-0.43-7.82-0.43h-6.59V150.57z"/>
		<path class="st2" d="M445.25,130.27c-0.88,0.05-1.82,0.08-2.81,0.08c-1,0-2.48-0.06-4.44-0.19v20.18h-11.64V98.45
			c4.1-0.47,9.14-0.7,15.11-0.7c8.14,0,14.21,1.33,18.21,3.98c4,2.65,6,6.75,6,12.28c0,4.29-1.83,7.97-5.49,11.02
			c-1.2,0.98-2.58,1.84-4.13,2.56l8.96,16.69c1.76,3.44,3.1,5.48,4.04,6.13l-0.22,0.19c-2.84-0.41-7.31-0.4-13.4,0.04L445.25,130.27
			z M442.31,106.91c-1.49,0-2.93,0.06-4.31,0.19v14.82c1.43,0.18,3.12,0.27,5.05,0.27c1.93,0,3.56-0.15,4.88-0.45
			c1.32-0.3,2.46-0.76,3.43-1.38c2.08-1.37,3.12-3.43,3.12-6.17s-1.08-4.67-3.25-5.78C449.21,107.41,446.23,106.91,442.31,106.91z"
			/>
		<path class="st2" d="M518.96,141.02c1.82,0,3.08-0.16,3.78-0.47l0.18,0.04l-0.44,9.74h-32.91V98.45c0.79,0.05,1.67,0.09,2.64,0.12
			l3.08,0.08c2.05,0.05,4.28,0.08,6.68,0.08c6.71,0,13.34-0.1,19.9-0.31c-0.32,2.28-0.48,5.32-0.48,9.12c0,0.41,0.03,0.72,0.09,0.93
			l-0.09,0.12c-1.52-0.39-3.69-0.58-6.5-0.58h-13.84v9.9h10.41c3.22,0,5.15-0.08,5.8-0.23l0.13,9.58c-1.41-0.13-3.22-0.19-5.45-0.19
			h-10.9v13.97H518.96z"/>
		<path class="st2" d="M549.7,150.64c-2.52-0.21-5.46-0.31-8.83-0.31h-3.47l19.11-47.3c0.85-2.12,1.27-3.36,1.27-3.71
			s-0.01-0.56-0.04-0.64l0.04-0.08c1.9,0.08,3.92,0.12,6.06,0.12c1.76,0,3.87-0.03,6.33-0.08l0.04,0.08
			c-0.06,0.1-0.09,0.25-0.09,0.43c0,0.49,0.44,1.8,1.32,3.92l19.51,47.38c-0.59-0.03-1.27-0.04-2.06-0.04l-2.28-0.08
			c-0.73,0-1.39,0-1.98,0h-6.81l-4.13-11.18h-19.86L549.7,150.64z M570.26,129.84l-6.63-18.04l-6.46,18.04H570.26z"/>
		<path class="st2" d="M620.69,150.57c-1.41-0.16-4.12-0.23-8.13-0.23h-3.51V98.57c1.87,0.1,3.94,0.16,6.19,0.16
			c2.25,0,3.85-0.1,4.79-0.31l14.76,22.16l14.19-22.16c0.94,0.21,2.72,0.31,5.36,0.31s4.89-0.05,6.77-0.16v51.77h-3.51
			c-4.01,0-6.72,0.08-8.13,0.23V115.8l-14.37,22.7l-14.41-20.88V150.57z"/>
	</g>
</g>
</svg>
